<?xml version="1.0" encoding="UTF-8" standalone="no"?>
<!DOCTYPE svg PUBLIC "-//W3C//DTD SVG 1.1//EN"
 "http://www.w3.org/Graphics/SVG/1.1/DTD/svg11.dtd">
<!-- Generated by graphviz version 5.0.0 (20220707.1540)
 -->
<!-- Pages: 1 -->
<svg width="990pt" height="206pt"
 viewBox="0.00 0.00 990.39 206.00" xmlns="http://www.w3.org/2000/svg" xmlns:xlink="http://www.w3.org/1999/xlink">
<g id="graph0" class="graph" transform="scale(1 1) rotate(0) translate(4 202)">
<polygon fill="white" stroke="transparent" points="-4,4 -4,-202 986.39,-202 986.39,4 -4,4"/>
<!-- start -->
<g id="node1" class="node">
<title>start</title>
<ellipse fill="green" stroke="black" cx="26.65" cy="-99" rx="26.8" ry="26.8"/>
<text text-anchor="middle" x="26.65" y="-95.3" font-family="Times New Roman,serif" font-size="14.00">start</text>
</g>
<!-- A -->
<g id="node11" class="node">
<title>A</title>
<polygon fill="grey" stroke="black" points="143.3,-117 89.3,-117 89.3,-81 143.3,-81 143.3,-117"/>
<text text-anchor="middle" x="116.3" y="-95.3" font-family="Times New Roman,serif" font-size="14.00">A</text>
</g>
<!-- start&#45;&gt;A -->
<g id="edge1" class="edge">
<title>start&#45;&gt;A</title>
<path fill="none" stroke="black" d="M53.47,-99C61.44,-99 70.37,-99 78.91,-99"/>
<polygon fill="black" stroke="black" points="79.05,-102.5 89.05,-99 79.05,-95.5 79.05,-102.5"/>
</g>
<!-- end -->
<g id="node2" class="node">
<title>end</title>
<ellipse fill="red" stroke="black" cx="958.34" cy="-56" rx="24.1" ry="24.1"/>
<text text-anchor="middle" x="958.34" y="-52.3" font-family="Times New Roman,serif" font-size="14.00">end</text>
</g>
<!-- p2 -->
<g id="node3" class="node">
<title>p2</title>
<ellipse fill="white" stroke="black" cx="191.8" cy="-99" rx="12.5" ry="12.5"/>
<text text-anchor="middle" x="191.8" y="-95.3" font-family="Times New Roman,serif" font-size="14.00">p2</text>
</g>
<!-- B -->
<g id="node12" class="node">
<title>B</title>
<polygon fill="grey" stroke="black" points="294.3,-144 240.3,-144 240.3,-108 294.3,-108 294.3,-144"/>
<text text-anchor="middle" x="267.3" y="-122.3" font-family="Times New Roman,serif" font-size="14.00">B</text>
</g>
<!-- p2&#45;&gt;B -->
<g id="edge3" class="edge">
<title>p2&#45;&gt;B</title>
<path fill="none" stroke="black" d="M203.96,-103.1C211.13,-105.73 220.87,-109.31 230.53,-112.86"/>
<polygon fill="black" stroke="black" points="229.46,-116.2 240.06,-116.36 231.88,-109.63 229.46,-116.2"/>
</g>
<!-- M -->
<g id="node23" class="node">
<title>M</title>
<polygon fill="grey" stroke="black" points="294.3,-90 240.3,-90 240.3,-54 294.3,-54 294.3,-90"/>
<text text-anchor="middle" x="267.3" y="-68.3" font-family="Times New Roman,serif" font-size="14.00">M</text>
</g>
<!-- p2&#45;&gt;M -->
<g id="edge25" class="edge">
<title>p2&#45;&gt;M</title>
<path fill="none" stroke="black" d="M213.52,-91.39C221.76,-88.36 231.34,-84.84 240.06,-81.64"/>
<polygon fill="black" stroke="black" points="212.14,-88.17 203.96,-94.9 214.55,-94.74 212.14,-88.17"/>
</g>
<!-- p3 -->
<g id="node4" class="node">
<title>p3</title>
<ellipse fill="white" stroke="black" cx="342.8" cy="-126" rx="12.5" ry="12.5"/>
<text text-anchor="middle" x="342.8" y="-122.3" font-family="Times New Roman,serif" font-size="14.00">p3</text>
</g>
<!-- C -->
<g id="node13" class="node">
<title>C</title>
<polygon fill="grey" stroke="black" points="445.3,-144 391.3,-144 391.3,-108 445.3,-108 445.3,-144"/>
<text text-anchor="middle" x="418.3" y="-122.3" font-family="Times New Roman,serif" font-size="14.00">C</text>
</g>
<!-- p3&#45;&gt;C -->
<g id="edge5" class="edge">
<title>p3&#45;&gt;C</title>
<path fill="none" stroke="black" d="M355.6,-126C362.56,-126 371.78,-126 380.96,-126"/>
<polygon fill="black" stroke="black" points="381.19,-129.5 391.19,-126 381.19,-122.5 381.19,-129.5"/>
</g>
<!-- p4 -->
<g id="node5" class="node">
<title>p4</title>
<ellipse fill="white" stroke="black" cx="493.8" cy="-126" rx="12.5" ry="12.5"/>
<text text-anchor="middle" x="493.8" y="-122.3" font-family="Times New Roman,serif" font-size="14.00">p4</text>
</g>
<!-- D -->
<g id="node14" class="node">
<title>D</title>
<polygon fill="grey" stroke="black" points="596.3,-198 542.3,-198 542.3,-162 596.3,-162 596.3,-198"/>
<text text-anchor="middle" x="569.3" y="-176.3" font-family="Times New Roman,serif" font-size="14.00">D</text>
</g>
<!-- p4&#45;&gt;D -->
<g id="edge7" class="edge">
<title>p4&#45;&gt;D</title>
<path fill="none" stroke="black" d="M504.4,-133.06C512.36,-138.9 524.14,-147.56 535.43,-155.86"/>
<polygon fill="black" stroke="black" points="533.37,-158.69 543.5,-161.79 537.52,-153.04 533.37,-158.69"/>
</g>
<!-- E -->
<g id="node15" class="node">
<title>E</title>
<polygon fill="grey" stroke="black" points="596.3,-144 542.3,-144 542.3,-108 596.3,-108 596.3,-144"/>
<text text-anchor="middle" x="569.3" y="-122.3" font-family="Times New Roman,serif" font-size="14.00">E</text>
</g>
<!-- p4&#45;&gt;E -->
<g id="edge8" class="edge">
<title>p4&#45;&gt;E</title>
<path fill="none" stroke="black" d="M506.6,-126C513.56,-126 522.78,-126 531.96,-126"/>
<polygon fill="black" stroke="black" points="532.19,-129.5 542.19,-126 532.19,-122.5 532.19,-129.5"/>
</g>
<!-- F -->
<g id="node16" class="node">
<title>F</title>
<polygon fill="grey" stroke="black" points="596.3,-90 542.3,-90 542.3,-54 596.3,-54 596.3,-90"/>
<text text-anchor="middle" x="569.3" y="-68.3" font-family="Times New Roman,serif" font-size="14.00">F</text>
</g>
<!-- p4&#45;&gt;F -->
<g id="edge9" class="edge">
<title>p4&#45;&gt;F</title>
<path fill="none" stroke="black" d="M504.4,-118.94C512.36,-113.1 524.14,-104.44 535.43,-96.14"/>
<polygon fill="black" stroke="black" points="537.52,-98.96 543.5,-90.21 533.37,-93.31 537.52,-98.96"/>
</g>
<!-- p5 -->
<g id="node6" class="node">
<title>p5</title>
<ellipse fill="white" stroke="black" cx="644.8" cy="-99" rx="12.5" ry="12.5"/>
<text text-anchor="middle" x="644.8" y="-95.3" font-family="Times New Roman,serif" font-size="14.00">p5</text>
</g>
<!-- G -->
<g id="node17" class="node">
<title>G</title>
<polygon fill="grey" stroke="black" points="747.3,-114 693.3,-114 693.3,-78 747.3,-78 747.3,-114"/>
<text text-anchor="middle" x="720.3" y="-92.3" font-family="Times New Roman,serif" font-size="14.00">G</text>
</g>
<!-- p5&#45;&gt;G -->
<g id="edge13" class="edge">
<title>p5&#45;&gt;G</title>
<path fill="none" stroke="black" d="M657.6,-98.52C664.56,-98.23 673.78,-97.86 682.96,-97.48"/>
<polygon fill="black" stroke="black" points="683.34,-100.97 693.19,-97.07 683.06,-93.98 683.34,-100.97"/>
</g>
<!-- p6 -->
<g id="node7" class="node">
<title>p6</title>
<ellipse fill="white" stroke="black" cx="795.8" cy="-56" rx="12.5" ry="12.5"/>
<text text-anchor="middle" x="795.8" y="-52.3" font-family="Times New Roman,serif" font-size="14.00">p6</text>
</g>
<!-- H -->
<g id="node18" class="node">
<title>H</title>
<polygon fill="grey" stroke="black" points="898.3,-74 844.3,-74 844.3,-38 898.3,-38 898.3,-74"/>
<text text-anchor="middle" x="871.3" y="-52.3" font-family="Times New Roman,serif" font-size="14.00">H</text>
</g>
<!-- p6&#45;&gt;H -->
<g id="edge15" class="edge">
<title>p6&#45;&gt;H</title>
<path fill="none" stroke="black" d="M808.6,-56C815.56,-56 824.78,-56 833.96,-56"/>
<polygon fill="black" stroke="black" points="834.19,-59.5 844.19,-56 834.19,-52.5 834.19,-59.5"/>
</g>
<!-- p7 -->
<g id="node8" class="node">
<title>p7</title>
<ellipse fill="white" stroke="black" cx="644.8" cy="-25" rx="12.5" ry="12.5"/>
<text text-anchor="middle" x="644.8" y="-21.3" font-family="Times New Roman,serif" font-size="14.00">p7</text>
</g>
<!-- I -->
<g id="node19" class="node">
<title>I</title>
<polygon fill="grey" stroke="black" points="747.3,-47 693.3,-47 693.3,-11 747.3,-11 747.3,-47"/>
<text text-anchor="middle" x="720.3" y="-25.3" font-family="Times New Roman,serif" font-size="14.00">I</text>
</g>
<!-- p7&#45;&gt;I -->
<g id="edge17" class="edge">
<title>p7&#45;&gt;I</title>
<path fill="none" stroke="black" d="M667.41,-26.18C675.51,-26.62 684.81,-27.12 693.28,-27.58"/>
<polygon fill="black" stroke="black" points="667.46,-22.67 657.28,-25.62 667.07,-29.66 667.46,-22.67"/>
</g>
<!-- p8 -->
<g id="node9" class="node">
<title>p8</title>
<ellipse fill="white" stroke="black" cx="493.8" cy="-18" rx="12.5" ry="12.5"/>
<text text-anchor="middle" x="493.8" y="-14.3" font-family="Times New Roman,serif" font-size="14.00">p8</text>
</g>
<!-- J -->
<g id="node20" class="node">
<title>J</title>
<polygon fill="grey" stroke="black" points="596.3,-36 542.3,-36 542.3,0 596.3,0 596.3,-36"/>
<text text-anchor="middle" x="569.3" y="-14.3" font-family="Times New Roman,serif" font-size="14.00">J</text>
</g>
<!-- p8&#45;&gt;J -->
<g id="edge19" class="edge">
<title>p8&#45;&gt;J</title>
<path fill="none" stroke="black" d="M516.65,-18C524.67,-18 533.83,-18 542.19,-18"/>
<polygon fill="black" stroke="black" points="516.6,-14.5 506.6,-18 516.6,-21.5 516.6,-14.5"/>
</g>
<!-- p9 -->
<g id="node10" class="node">
<title>p9</title>
<ellipse fill="white" stroke="black" cx="342.8" cy="-72" rx="12.5" ry="12.5"/>
<text text-anchor="middle" x="342.8" y="-68.3" font-family="Times New Roman,serif" font-size="14.00">p9</text>
</g>
<!-- K -->
<g id="node21" class="node">
<title>K</title>
<polygon fill="grey" stroke="black" points="445.3,-90 391.3,-90 391.3,-54 445.3,-54 445.3,-90"/>
<text text-anchor="middle" x="418.3" y="-68.3" font-family="Times New Roman,serif" font-size="14.00">K</text>
</g>
<!-- p9&#45;&gt;K -->
<g id="edge22" class="edge">
<title>p9&#45;&gt;K</title>
<path fill="none" stroke="black" d="M365.65,-72C373.67,-72 382.83,-72 391.19,-72"/>
<polygon fill="black" stroke="black" points="365.6,-68.5 355.6,-72 365.6,-75.5 365.6,-68.5"/>
</g>
<!-- L -->
<g id="node22" class="node">
<title>L</title>
<polygon fill="grey" stroke="black" points="445.3,-36 391.3,-36 391.3,0 445.3,0 445.3,-36"/>
<text text-anchor="middle" x="418.3" y="-14.3" font-family="Times New Roman,serif" font-size="14.00">L</text>
</g>
<!-- p9&#45;&gt;L -->
<g id="edge23" class="edge">
<title>p9&#45;&gt;L</title>
<path fill="none" stroke="black" d="M361.51,-58.99C370.8,-52.16 382.34,-43.68 392.5,-36.21"/>
<polygon fill="black" stroke="black" points="359.39,-56.2 353.4,-64.94 363.54,-61.84 359.39,-56.2"/>
</g>
<!-- A&#45;&gt;p2 -->
<g id="edge2" class="edge">
<title>A&#45;&gt;p2</title>
<path fill="none" stroke="black" d="M143.42,-99C151.81,-99 161.02,-99 169.07,-99"/>
<polygon fill="black" stroke="black" points="169.13,-102.5 179.13,-99 169.13,-95.5 169.13,-102.5"/>
</g>
<!-- B&#45;&gt;p3 -->
<g id="edge4" class="edge">
<title>B&#45;&gt;p3</title>
<path fill="none" stroke="black" d="M294.42,-126C302.81,-126 312.02,-126 320.07,-126"/>
<polygon fill="black" stroke="black" points="320.13,-129.5 330.13,-126 320.13,-122.5 320.13,-129.5"/>
</g>
<!-- C&#45;&gt;p4 -->
<g id="edge6" class="edge">
<title>C&#45;&gt;p4</title>
<path fill="none" stroke="black" d="M445.42,-126C453.81,-126 463.02,-126 471.07,-126"/>
<polygon fill="black" stroke="black" points="471.13,-129.5 481.13,-126 471.13,-122.5 471.13,-129.5"/>
</g>
<!-- D&#45;&gt;p5 -->
<g id="edge10" class="edge">
<title>D&#45;&gt;p5</title>
<path fill="none" stroke="black" d="M588.03,-161.81C590.82,-158.88 593.65,-155.87 596.3,-153 607.5,-140.82 619.84,-126.78 629.13,-116.06"/>
<polygon fill="black" stroke="black" points="631.96,-118.14 635.85,-108.28 626.67,-113.56 631.96,-118.14"/>
</g>
<!-- E&#45;&gt;p5 -->
<g id="edge11" class="edge">
<title>E&#45;&gt;p5</title>
<path fill="none" stroke="black" d="M596.42,-116.4C605.24,-113.16 614.95,-109.6 623.27,-106.54"/>
<polygon fill="black" stroke="black" points="624.72,-109.74 632.9,-103 622.31,-103.16 624.72,-109.74"/>
</g>
<!-- F&#45;&gt;p5 -->
<g id="edge12" class="edge">
<title>F&#45;&gt;p5</title>
<path fill="none" stroke="black" d="M596.42,-81.6C605.24,-84.84 614.95,-88.4 623.27,-91.46"/>
<polygon fill="black" stroke="black" points="622.31,-94.84 632.9,-95 624.72,-88.26 622.31,-94.84"/>
</g>
<!-- G&#45;&gt;p6 -->
<g id="edge14" class="edge">
<title>G&#45;&gt;p6</title>
<path fill="none" stroke="black" d="M747.42,-81.78C756.65,-76.76 766.86,-71.2 775.43,-66.54"/>
<polygon fill="black" stroke="black" points="777.17,-69.58 784.28,-61.72 773.82,-63.43 777.17,-69.58"/>
</g>
<!-- H&#45;&gt;end -->
<g id="edge26" class="edge">
<title>H&#45;&gt;end</title>
<path fill="none" stroke="black" d="M898.74,-56C906.69,-56 915.53,-56 923.87,-56"/>
<polygon fill="black" stroke="black" points="924.08,-59.5 934.08,-56 924.08,-52.5 924.08,-59.5"/>
</g>
<!-- I&#45;&gt;p6 -->
<g id="edge16" class="edge">
<title>I&#45;&gt;p6</title>
<path fill="none" stroke="black" d="M757.06,-42.14C766.84,-45.73 776.71,-49.36 783.9,-52"/>
<polygon fill="black" stroke="black" points="758.01,-38.76 747.42,-38.6 755.6,-45.33 758.01,-38.76"/>
</g>
<!-- J&#45;&gt;p7 -->
<g id="edge18" class="edge">
<title>J&#45;&gt;p7</title>
<path fill="none" stroke="black" d="M606.4,-21.44C615.72,-22.33 625.1,-23.22 632.13,-23.89"/>
<polygon fill="black" stroke="black" points="606.7,-17.95 596.42,-20.49 606.04,-24.92 606.7,-17.95"/>
</g>
<!-- K&#45;&gt;p8 -->
<g id="edge20" class="edge">
<title>K&#45;&gt;p8</title>
<path fill="none" stroke="black" d="M452.52,-47.59C463.63,-39.43 475.17,-30.95 483.04,-25.17"/>
<polygon fill="black" stroke="black" points="450.17,-44.98 444.18,-53.72 454.31,-50.62 450.17,-44.98"/>
</g>
<!-- L&#45;&gt;p8 -->
<g id="edge21" class="edge">
<title>L&#45;&gt;p8</title>
<path fill="none" stroke="black" d="M455.69,-18C464.92,-18 474.18,-18 481.13,-18"/>
<polygon fill="black" stroke="black" points="455.42,-14.5 445.42,-18 455.42,-21.5 455.42,-14.5"/>
</g>
<!-- M&#45;&gt;p9 -->
<g id="edge24" class="edge">
<title>M&#45;&gt;p9</title>
<path fill="none" stroke="black" d="M304.69,-72C313.92,-72 323.18,-72 330.13,-72"/>
<polygon fill="black" stroke="black" points="304.42,-68.5 294.42,-72 304.42,-75.5 304.42,-68.5"/>
</g>
</g>
</svg>
